<svg xmlns="http://www.w3.org/2000/svg" width="800" height="600" viewBox="0 0 800 600">
  <!-- Background -->
  <rect width="800" height="600" fill="#f8f9fa" />
  
  <!-- Title -->
  <text x="400" y="40" font-family="Arial" font-size="24" font-weight="bold" text-anchor="middle" fill="#333">Diagram Komponen SADHARLib</text>
  
  <!-- App Container -->
  <rect x="50" y="80" width="700" height="500" rx="10" ry="10" fill="#f5f5f5" stroke="#9e9e9e" stroke-width="2" stroke-dasharray="5,5" />
  <text x="400" y="100" font-family="Arial" font-size="18" font-weight="bold" text-anchor="middle" fill="#616161">Next.js Application</text>
  
  <!-- Pages Container -->
  <rect x="80" y="120" width="200" height="180" rx="5" ry="5" fill="#e3f2fd" stroke="#2196f3" stroke-width="2" />
  <text x="180" y="140" font-family="Arial" font-size="16" font-weight="bold" text-anchor="middle" fill="#1565c0">Pages</text>
  
  <!-- Page Components -->
  <rect x="100" y="160" width="160" height="30" rx="5" ry="5" fill="#bbdefb" stroke="#64b5f6" stroke-width="1" />
  <text x="180" y="180" font-family="Arial" font-size="12" text-anchor="middle" fill="#333">Landing Page</text>
  
  <rect x="100" y="200" width="160" height="30" rx="5" ry="5" fill="#bbdefb" stroke="#64b5f6" stroke-width="1" />
  <text x="180" y="220" font-family="Arial" font-size="12" text-anchor="middle" fill="#333">Dashboard</text>
  
  <rect x="100" y="240" width="160" height="30" rx="5" ry="5" fill="#bbdefb" stroke="#64b5f6" stroke-width="1" />
  <text x="180" y="260" font-family="Arial" font-size="12" text-anchor="middle" fill="#333">Login/Register</text>
  
  <!-- Feature Components Container -->
  <rect x="300" y="120" width="420" height="180" rx="5" ry="5" fill="#e8f5e9" stroke="#4caf50" stroke-width="2" />
  <text x="510" y="140" font-family="Arial" font-size="16" font-weight="bold" text-anchor="middle" fill="#2e7d32">Feature Components</text>
  
  <!-- Feature Components -->
  <rect x="320" y="160" width="180" height="30" rx="5" ry="5" fill="#c8e6c9" stroke="#81c784" stroke-width="1" />
  <text x="410" y="180" font-family="Arial" font-size="12" text-anchor="middle" fill="#333">ChatbotSection</text>
  
  <rect x="320" y="200" width="180" height="30" rx="5" ry="5" fill="#c8e6c9" stroke="#81c784" stroke-width="1" />
  <text x="410" y="220" font-family="Arial" font-size="12" text-anchor="middle" fill="#333">Library Components</text>
  
  <rect x="320" y="240" width="180" height="30" rx="5" ry="5" fill="#c8e6c9" stroke="#81c784" stroke-width="1" />
  <text x="410" y="260" font-family="Arial" font-size="12" text-anchor="middle" fill="#333">Plagiarism Components</text>
  
  <rect x="520" y="160" width="180" height="30" rx="5" ry="5" fill="#c8e6c9" stroke="#81c784" stroke-width="1" />
  <text x="610" y="180" font-family="Arial" font-size="12" text-anchor="middle" fill="#333">Analytics Components</text>
  
  <rect x="520" y="200" width="180" height="30" rx="5" ry="5" fill="#c8e6c9" stroke="#81c784" stroke-width="1" />
  <text x="610" y="220" font-family="Arial" font-size="12" text-anchor="middle" fill="#333">Settings Components</text>
  
  <rect x="520" y="240" width="180" height="30" rx="5" ry="5" fill="#c8e6c9" stroke="#81c784" stroke-width="1" />
  <text x="610" y="260" font-family="Arial" font-size="12" text-anchor="middle" fill="#333">User Management</text>
  
  <!-- Shared Components Container -->
  <rect x="80" y="320" width="200" height="140" rx="5" ry="5" fill="#fff3e0" stroke="#ff9800" stroke-width="2" />
  <text x="180" y="340" font-family="Arial" font-size="16" font-weight="bold" text-anchor="middle" fill="#e65100">Shared Components</text>
  
  <!-- Shared Components -->
  <rect x="100" y="360" width="160" height="30" rx="5" ry="5" fill="#ffe0b2" stroke="#ffb74d" stroke-width="1" />
  <text x="180" y="380" font-family="Arial" font-size="12" text-anchor="middle" fill="#333">Layout Components</text>
  
  <rect x="100" y="400" width="160" height="30" rx="5" ry="5" fill="#ffe0b2" stroke="#ffb74d" stroke-width="1" />
  <text x="180" y="420" font-family="Arial" font-size="12" text-anchor="middle" fill="#333">UI Components</text>
  
  <!-- Context Container -->
  <rect x="300" y="320" width="200" height="80" rx="5" ry="5" fill="#e1f5fe" stroke="#03a9f4" stroke-width="2" />
  <text x="400" y="340" font-family="Arial" font-size="16" font-weight="bold" text-anchor="middle" fill="#0277bd">Context</text>
  
  <!-- Context Components -->
  <rect x="320" y="360" width="160" height="30" rx="5" ry="5" fill="#b3e5fc" stroke="#4fc3f7" stroke-width="1" />
  <text x="400" y="380" font-family="Arial" font-size="12" text-anchor="middle" fill="#333">AuthContext</text>
  
  <!-- Hooks Container -->
  <rect x="520" y="320" width="200" height="140" rx="5" ry="5" fill="#f3e5f5" stroke="#9c27b0" stroke-width="2" />
  <text x="620" y="340" font-family="Arial" font-size="16" font-weight="bold" text-anchor="middle" fill="#6a1b9a">Custom Hooks</text>
  
  <!-- Hooks Components -->
  <rect x="540" y="360" width="160" height="30" rx="5" ry="5" fill="#e1bee7" stroke="#ce93d8" stroke-width="1" />
  <text x="620" y="380" font-family="Arial" font-size="12" text-anchor="middle" fill="#333">useLibraryItems</text>
  
  <rect x="540" y="400" width="160" height="30" rx="5" ry="5" fill="#e1bee7" stroke="#ce93d8" stroke-width="1" />
  <text x="620" y="420" font-family="Arial" font-size="12" text-anchor="middle" fill="#333">useGetStatsCount</text>
  
  <!-- API Routes Container -->
  <rect x="80" y="480" width="640" height="80" rx="5" ry="5" fill="#fce4ec" stroke="#e91e63" stroke-width="2" />
  <text x="400" y="500" font-family="Arial" font-size="16" font-weight="bold" text-anchor="middle" fill="#c2185b">API Routes</text>
  
  <!-- API Routes Components -->
  <rect x="100" y="520" width="120" height="30" rx="5" ry="5" fill="#f8bbd0" stroke="#f48fb1" stroke-width="1" />
  <text x="160" y="540" font-family="Arial" font-size="12" text-anchor="middle" fill="#333">Authentication</text>
  
  <rect x="230" y="520" width="120" height="30" rx="5" ry="5" fill="#f8bbd0" stroke="#f48fb1" stroke-width="1" />
  <text x="290" y="540" font-family="Arial" font-size="12" text-anchor="middle" fill="#333">Library API</text>
  
  <rect x="360" y="520" width="120" height="30" rx="5" ry="5" fill="#f8bbd0" stroke="#f48fb1" stroke-width="1" />
  <text x="420" y="540" font-family="Arial" font-size="12" text-anchor="middle" fill="#333">Chatbot API</text>
  
  <rect x="490" y="520" width="120" height="30" rx="5" ry="5" fill="#f8bbd0" stroke="#f48fb1" stroke-width="1" />
  <text x="550" y="540" font-family="Arial" font-size="12" text-anchor="middle" fill="#333">Plagiarism API</text>
  
  <!-- Connections -->
  <line x1="180" y1="300" x2="180" y2="320" stroke="#757575" stroke-width="1" stroke-dasharray="5,5" />
  <line x1="400" y1="300" x2="400" y2="320" stroke="#757575" stroke-width="1" stroke-dasharray="5,5" />
  <line x1="620" y1="300" x2="620" y2="320" stroke="#757575" stroke-width="1" stroke-dasharray="5,5" />
  <line x1="180" y1="460" x2="180" y2="480" stroke="#757575" stroke-width="1" stroke-dasharray="5,5" />
  <line x1="400" y1="400" x2="400" y2="480" stroke="#757575" stroke-width="1" stroke-dasharray="5,5" />
  <line x1="620" y1="440" x2="620" y2="480" stroke="#757575" stroke-width="1" stroke-dasharray="5,5" />
  
  <line x1="280" y1="200" x2="320" y2="200" stroke="#757575" stroke-width="1" stroke-dasharray="5,5" />
  <line x1="280" y1="240" x2="320" y2="240" stroke="#757575" stroke-width="1" stroke-dasharray="5,5" />
  <line x1="500" y1="200" x2="520" y2="200" stroke="#757575" stroke-width="1" stroke-dasharray="5,5" />
  <line x1="500" y1="240" x2="520" y2="240" stroke="#757575" stroke-width="1" stroke-dasharray="5,5" />
</svg>